<?xml version="1.0" encoding="UTF-8"?>
<svg xmlns="http://www.w3.org/2000/svg" xmlns:xlink="http://www.w3.org/1999/xlink" width="1920" height="1080" viewBox="0 0 1920 1080">
<defs>
<g>
<g id="glyph-0-0">
<path d="M 3.105469 -1.328125 C 3.105469 -1.675781 3.019531 -1.945312 2.847656 -2.136719 C 2.675781 -2.328125 2.429688 -2.425781 2.117188 -2.425781 C 1.804688 -2.425781 1.5625 -2.328125 1.390625 -2.136719 C 1.21875 -1.945312 1.132812 -1.675781 1.132812 -1.328125 C 1.132812 -0.980469 1.21875 -0.707031 1.390625 -0.515625 C 1.5625 -0.324219 1.804688 -0.226562 2.117188 -0.226562 C 2.429688 -0.226562 2.675781 -0.324219 2.847656 -0.515625 C 3.019531 -0.707031 3.105469 -0.980469 3.105469 -1.328125 M 2.972656 -3.6875 C 2.972656 -3.984375 2.898438 -4.214844 2.746094 -4.378906 C 2.597656 -4.542969 2.386719 -4.625 2.117188 -4.625 C 1.851562 -4.625 1.644531 -4.542969 1.492188 -4.378906 C 1.339844 -4.214844 1.265625 -3.984375 1.265625 -3.6875 C 1.265625 -3.390625 1.339844 -3.160156 1.492188 -2.996094 C 1.644531 -2.828125 1.851562 -2.746094 2.117188 -2.746094 C 2.386719 -2.746094 2.597656 -2.828125 2.746094 -2.996094 C 2.898438 -3.160156 2.972656 -3.390625 2.972656 -3.6875 M 2.621094 -2.585938 C 2.988281 -2.539062 3.277344 -2.402344 3.484375 -2.179688 C 3.6875 -1.957031 3.792969 -1.671875 3.792969 -1.328125 C 3.792969 -0.871094 3.648438 -0.519531 3.359375 -0.273438 C 3.070312 -0.0273438 2.65625 0.09375 2.117188 0.09375 C 1.582031 0.09375 1.171875 -0.0273438 0.878906 -0.273438 C 0.589844 -0.519531 0.445312 -0.871094 0.445312 -1.328125 C 0.445312 -1.671875 0.550781 -1.957031 0.753906 -2.179688 C 0.960938 -2.402344 1.25 -2.539062 1.621094 -2.585938 C 1.292969 -2.644531 1.042969 -2.769531 0.867188 -2.960938 C 0.691406 -3.152344 0.605469 -3.394531 0.605469 -3.6875 C 0.605469 -4.078125 0.738281 -4.386719 1.007812 -4.609375 C 1.277344 -4.835938 1.648438 -4.949219 2.117188 -4.949219 C 2.589844 -4.949219 2.960938 -4.835938 3.230469 -4.609375 C 3.5 -4.386719 3.632812 -4.078125 3.632812 -3.6875 C 3.632812 -3.394531 3.546875 -3.152344 3.371094 -2.960938 C 3.195312 -2.769531 2.945312 -2.644531 2.621094 -2.585938 Z "/>
</g>
</g>
</defs>
<g fill="rgb(100%, 100%, 100%)" fill-opacity="1">
<use xlink:href="#glyph-0-0" x="30" y="26.1875"/>
</g>
</svg>
