<?xml version="1.0" encoding="UTF-8"?>
<svg xmlns="http://www.w3.org/2000/svg" xmlns:xlink="http://www.w3.org/1999/xlink" width="854" height="480" viewBox="0 0 854 480">
<defs>
<g>
<g id="glyph-0-0">
<path d="M 0.78125 -0.867188 L 1.886719 -0.867188 L 1.886719 -4.007812 L 0.75 -3.773438 L 0.75 -4.625 L 1.882812 -4.859375 L 3.074219 -4.859375 L 3.074219 -0.867188 L 4.179688 -0.867188 L 4.179688 0 L 0.78125 0 Z "/>
</g>
<g id="glyph-0-1">
<path d="M 3.066406 -2.433594 C 3.066406 -3.042969 3.007812 -3.46875 2.894531 -3.71875 C 2.78125 -3.96875 2.589844 -4.09375 2.320312 -4.09375 C 2.050781 -4.09375 1.859375 -3.96875 1.746094 -3.71875 C 1.628906 -3.46875 1.570312 -3.042969 1.570312 -2.433594 C 1.570312 -1.820312 1.628906 -1.386719 1.746094 -1.136719 C 1.859375 -0.882812 2.050781 -0.757812 2.320312 -0.757812 C 2.585938 -0.757812 2.777344 -0.882812 2.894531 -1.136719 C 3.007812 -1.386719 3.066406 -1.820312 3.066406 -2.433594 M 4.320312 -2.425781 C 4.320312 -1.621094 4.144531 -1 3.796875 -0.5625 C 3.453125 -0.125 2.957031 0.09375 2.320312 0.09375 C 1.679688 0.09375 1.1875 -0.125 0.839844 -0.5625 C 0.492188 -1 0.320312 -1.621094 0.320312 -2.425781 C 0.320312 -3.230469 0.492188 -3.855469 0.839844 -4.292969 C 1.1875 -4.730469 1.679688 -4.949219 2.320312 -4.949219 C 2.957031 -4.949219 3.453125 -4.730469 3.796875 -4.292969 C 4.144531 -3.855469 4.320312 -3.230469 4.320312 -2.425781 Z "/>
</g>
</g>
</defs>
<g fill="rgb(100%, 100%, 100%)" fill-opacity="1">
<use xlink:href="#glyph-0-0" x="30" y="26.1875"/>
<use xlink:href="#glyph-0-1" x="35" y="26.1875"/>
</g>
</svg>
