<?xml version="1.0" encoding="UTF-8"?>
<svg xmlns="http://www.w3.org/2000/svg" xmlns:xlink="http://www.w3.org/1999/xlink" width="854" height="480" viewBox="0 0 854 480">
<defs>
<g>
<g id="glyph-0-0">
<path d="M 2.320312 -2.175781 C 2.085938 -2.175781 1.90625 -2.109375 1.78125 -1.980469 C 1.65625 -1.855469 1.589844 -1.671875 1.589844 -1.433594 C 1.589844 -1.195312 1.65625 -1.011719 1.78125 -0.882812 C 1.90625 -0.757812 2.085938 -0.691406 2.320312 -0.691406 C 2.554688 -0.691406 2.730469 -0.757812 2.855469 -0.882812 C 2.976562 -1.011719 3.039062 -1.195312 3.039062 -1.433594 C 3.039062 -1.671875 2.976562 -1.855469 2.855469 -1.984375 C 2.730469 -2.109375 2.554688 -2.175781 2.320312 -2.175781 M 1.40625 -2.585938 C 1.109375 -2.675781 0.886719 -2.8125 0.738281 -2.996094 C 0.589844 -3.183594 0.515625 -3.414062 0.515625 -3.6875 C 0.515625 -4.097656 0.667969 -4.410156 0.972656 -4.625 C 1.277344 -4.839844 1.726562 -4.949219 2.320312 -4.949219 C 2.910156 -4.949219 3.355469 -4.839844 3.660156 -4.628906 C 3.96875 -4.414062 4.121094 -4.101562 4.121094 -3.6875 C 4.121094 -3.414062 4.046875 -3.183594 3.894531 -2.996094 C 3.742188 -2.8125 3.519531 -2.675781 3.226562 -2.585938 C 3.554688 -2.496094 3.804688 -2.347656 3.972656 -2.144531 C 4.140625 -1.9375 4.226562 -1.679688 4.226562 -1.367188 C 4.226562 -0.886719 4.066406 -0.519531 3.746094 -0.273438 C 3.425781 -0.0273438 2.949219 0.09375 2.320312 0.09375 C 1.6875 0.09375 1.210938 -0.0273438 0.890625 -0.273438 C 0.566406 -0.519531 0.40625 -0.886719 0.40625 -1.367188 C 0.40625 -1.679688 0.492188 -1.9375 0.660156 -2.144531 C 0.828125 -2.347656 1.078125 -2.496094 1.40625 -2.585938 M 1.699219 -3.5625 C 1.699219 -3.367188 1.753906 -3.21875 1.859375 -3.113281 C 1.96875 -3.011719 2.121094 -2.957031 2.320312 -2.957031 C 2.515625 -2.957031 2.667969 -3.011719 2.773438 -3.113281 C 2.878906 -3.21875 2.933594 -3.367188 2.933594 -3.5625 C 2.933594 -3.753906 2.878906 -3.902344 2.773438 -4.003906 C 2.667969 -4.109375 2.515625 -4.160156 2.320312 -4.160156 C 2.121094 -4.160156 1.96875 -4.109375 1.859375 -4.003906 C 1.753906 -3.898438 1.699219 -3.753906 1.699219 -3.5625 Z "/>
</g>
</g>
</defs>
<g fill="rgb(100%, 100%, 100%)" fill-opacity="1">
<use xlink:href="#glyph-0-0" x="30" y="26.1875"/>
</g>
</svg>
