<?xml version="1.0" encoding="UTF-8"?>
<svg xmlns="http://www.w3.org/2000/svg" xmlns:xlink="http://www.w3.org/1999/xlink" width="1920" height="1080" viewBox="0 0 1920 1080">
<defs>
<g>
<g id="glyph-0-0">
<path d="M 0.667969 -0.105469 L 0.667969 -1.007812 C 0.867188 -0.914062 1.058594 -0.84375 1.242188 -0.796875 C 1.421875 -0.75 1.601562 -0.726562 1.78125 -0.726562 C 2.152344 -0.726562 2.445312 -0.828125 2.652344 -1.035156 C 2.859375 -1.242188 2.984375 -1.550781 3.019531 -1.960938 C 2.875 -1.851562 2.714844 -1.769531 2.546875 -1.714844 C 2.382812 -1.660156 2.199219 -1.632812 2.003906 -1.632812 C 1.507812 -1.632812 1.105469 -1.777344 0.800781 -2.070312 C 0.496094 -2.359375 0.34375 -2.738281 0.34375 -3.210938 C 0.34375 -3.734375 0.515625 -4.15625 0.855469 -4.46875 C 1.195312 -4.785156 1.648438 -4.941406 2.21875 -4.941406 C 2.855469 -4.941406 3.34375 -4.726562 3.691406 -4.300781 C 4.039062 -3.871094 4.210938 -3.269531 4.210938 -2.488281 C 4.210938 -1.683594 4.007812 -1.054688 3.601562 -0.59375 C 3.199219 -0.136719 2.640625 0.09375 1.933594 0.09375 C 1.707031 0.09375 1.488281 0.078125 1.277344 0.0429688 C 1.070312 0.0117188 0.867188 -0.0390625 0.667969 -0.105469 M 2.214844 -2.449219 C 2.433594 -2.449219 2.597656 -2.519531 2.707031 -2.660156 C 2.820312 -2.804688 2.875 -3.015625 2.875 -3.300781 C 2.875 -3.582031 2.820312 -3.796875 2.707031 -3.9375 C 2.597656 -4.082031 2.433594 -4.152344 2.214844 -4.152344 C 1.996094 -4.152344 1.828125 -4.082031 1.71875 -3.9375 C 1.609375 -3.796875 1.550781 -3.582031 1.550781 -3.300781 C 1.550781 -3.015625 1.609375 -2.804688 1.71875 -2.660156 C 1.828125 -2.519531 1.996094 -2.449219 2.214844 -2.449219 Z "/>
</g>
</g>
</defs>
<g fill="rgb(100%, 100%, 100%)" fill-opacity="1">
<use xlink:href="#glyph-0-0" x="30" y="26.1875"/>
</g>
</svg>
